<svg width="24" height="24" viewBox="0 0 36 36" fill="none" xmlns="http://www.w3.org/2000/svg">
<path d="M31.5 4L29.716 8.542L27.932 4H23.785L21.859 8.903L19.932 4H16.069L14.143 8.903L12.216 4H8.068L6.284 8.542L4.5 4H2.133L5.868 32.013H30.131L33.867 4H31.5ZM25.858 5.678L28.317 12.103L25.716 18.724L23.259 12.47L25.858 5.678ZM18 6.049L20.457 12.469L18 18.723L15.543 12.469L18 6.049ZM10.142 5.678L12.741 12.47L10.284 18.724L7.683 12.103L10.142 5.678ZM5.958 16.611L6.284 15.758L8.833 22.418L7.26 26.422L5.958 16.611ZM8.068 32L10.284 26.21L12.5 32H8.068ZM11.736 22.418L14.143 16.13L16.549 22.418L14.143 28.544L11.736 22.418ZM15.784 32L18 26.21L20.216 32H15.784ZM19.451 22.418L21.857 16.13L24.263 22.418L21.857 28.544L19.451 22.418ZM23.5 32L25.716 26.21L27.932 32H23.5ZM28.892 26.808L27.167 22.418L29.716 15.759L30.127 16.833L28.892 26.808Z" fill="#9AAAB4"/>
<path d="M32 34C32 33.4696 31.7893 32.9609 31.4142 32.5858C31.0391 32.2107 30.5304 32 30 32H6C5.46957 32 4.96086 32.2107 4.58579 32.5858C4.21071 32.9609 4 33.4696 4 34C4 34.5304 4.21071 35.0391 4.58579 35.4142C4.96086 35.7893 5.46957 36 6 36H30C30.5304 36 31.0391 35.7893 31.4142 35.4142C31.7893 35.0391 32 34.5304 32 34ZM36 2C36 1.46957 35.7893 0.960859 35.4142 0.585786C35.0391 0.210714 34.5304 0 34 0L2 0C1.46957 0 0.960859 0.210714 0.585786 0.585786C0.210714 0.960859 0 1.46957 0 2C0 2.53043 0.210714 3.03914 0.585786 3.41421C0.960859 3.78929 1.46957 4 2 4H34C34.5304 4 35.0391 3.78929 35.4142 3.41421C35.7893 3.03914 36 2.53043 36 2Z" fill="#67757F"/>
</svg>
