<svg xmlns="http://www.w3.org/2000/svg" xmlns:xlink="http://www.w3.org/1999/xlink">
  <symbol id="github-logo" viewBox="0 0 24 24">
    <g fill="none">
      <path
        d="M12 .297c-6.63 0-12 5.373-12 12 0 5.303 3.438 9.8 8.205 11.385.6.113.82-.258.82-.577 0-.285-.01-1.04-.015-2.04-3.338.724-4.042-1.61-4.042-1.61C4.422 18.07 3.633 17.7 3.633 17.7c-1.087-.744.084-.729.084-.729 1.205.084 1.838 1.236 1.838 1.236 1.07 1.835 2.809 1.305 3.495.998.108-.776.417-1.305.76-1.605-2.665-.3-5.466-1.332-5.466-5.93 0-1.31.465-2.38 1.235-3.22-.135-.303-.54-1.523.105-3.176 0 0 1.005-.322 3.3 1.23.96-.267 1.98-.399 3-.405 1.02.006 2.04.138 3 .405 2.28-1.552 3.285-1.23 3.285-1.23.645 1.653.24 2.873.12 3.176.765.84 1.23 1.91 1.23 3.22 0 4.61-2.805 5.625-5.475 5.92.42.36.81 1.096.81 2.22 0 1.606-.015 2.896-.015 3.286 0 .315.21.69.825.57C20.565 22.092 24 17.592 24 12.297c0-6.627-5.373-12-12-12"
        fill="currentColor" />
    </g>
  </symbol>
  <symbol id="icon-telegram" viewBox="0 0 16 16">
    <path
      d="M16 8A8 8 0 11-.001 8 8 8 0 0116 8zM8.287 5.906c-.778.324-2.334.994-4.666 2.01-.378.15-.577.298-.595.442-.03.243.275.339.69.47l.175.055c.408.133.958.288 1.243.294.26.006.549-.1.868-.32 2.179-1.471 3.304-2.214 3.374-2.23.05-.012.12-.026.166.016.047.041.042.12.037.141-.03.129-1.227 1.241-1.846 1.817-.193.18-.33.307-.358.336a8.161 8.161 0 01-.188.186c-.38.366-.664.64.015 1.088.327.216.589.393.85.571.284.194.568.387.936.629.093.06.183.125.27.187.331.236.63.448.997.414.214-.02.435-.22.547-.82.265-1.417.786-4.486.906-5.751.007-.105.003-.21-.013-.315a.337.337 0 00-.114-.217.526.526 0 00-.31-.093c-.3.005-.763.166-2.984 1.09z"
      fill="currentColor" />
  </symbol>
  <symbol id="linkedin" viewBox="0 0 24 24">
    <g fill="currentColor">
      <path
        d="M20.5 2h-17A1.5 1.5 0 002 3.5v17A1.5 1.5 0 003.5 22h17a1.5 1.5 0 001.5-1.5v-17A1.5 1.5 0 0020.5 2zM8 19H5v-9h3zM6.5 8.25A1.75 1.75 0 118.3 6.5a1.78 1.78 0 01-1.8 1.75zM19 19h-3v-4.74c0-1.42-.6-1.93-1.38-1.93A1.74 1.74 0 0013 14.19a.66.66 0 000 .14V19h-3v-9h2.9v1.3a3.11 3.11 0 012.7-1.4c1.55 0 3.36.86 3.36 3.66z" />
    </g>
  </symbol>
  <symbol id="upwork" viewBox="0 0 102 28">
    <path fill="#fff"
      d="M28.18,19.06A6.54,6.54,0,0,1,23,16c.67-5.34,2.62-7,5.2-7s4.54,2,4.54,5-2,5-4.54,5m0-13.34a7.77,7.77,0,0,0-7.9,6.08,26,26,0,0,1-1.93-5.62H12v7.9c0,2.87-1.3,5-3.85,5s-4-2.12-4-5l0-7.9H.49v7.9A8.61,8.61,0,0,0,2.6,20a7.27,7.27,0,0,0,5.54,2.35c4.41,0,7.5-3.39,7.5-8.24V8.77a25.87,25.87,0,0,0,3.66,8.05L17.34,28h3.72l1.29-7.92a11,11,0,0,0,1.36,1,8.32,8.32,0,0,0,4.14,1.28h.34A8.1,8.1,0,0,0,36.37,14a8.12,8.12,0,0,0-8.19-8.31">
    </path>
    <path fill="#fff" d="M80.8,7.86V6.18H77.2V21.81h3.65V15.69c0-3.77.34-6.48,5.4-6.13V6c-2.36-.18-4.2.31-5.45,1.87">
    </path>
    <polygon fill="#fff"
      points="55.51 6.17 52.87 17.11 50.05 6.17 45.41 6.17 42.59 17.11 39.95 6.17 36.26 6.17 40.31 21.82 44.69 21.82 47.73 10.71 50.74 21.82 55.12 21.82 59.4 6.17 55.51 6.17">
    </polygon>
    <path fill="#fff"
      d="M67.42,19.07c-2.59,0-4.53-2.05-4.53-5s2-5,4.53-5S72,11,72,14s-2,5-4.54,5m0-13.35A8.1,8.1,0,0,0,59.25,14,8.18,8.18,0,1,0,75.6,14a8.11,8.11,0,0,0-8.18-8.31">
    </path>
    <path fill="#fff"
      d="M91.47,14.13h.84l5.09,7.69h4.11l-5.85-8.53a7.66,7.66,0,0,0,4.74-7.11H96.77c0,3.37-2.66,4.65-5.3,4.65V0H87.82V21.82h3.64Z">
    </path>
  </symbol>
  <symbol id='hh' width="48" height="48" viewBox="0 0 48 48" version="1.1" xmlns="http://www.w3.org/2000/svg">
    <path d="M24 48c13.255 0 24-10.745 24-24S37.255 0 24 0 0 10.745 0 24s10.745 24 24 24" fill="#D6001C" />
    <path
      d="M13.65 13.169v8.164c1.243-1.482 2.733-2.228 4.461-2.228.89 0 1.687.17 2.402.507.717.335 1.253.765 1.615 1.287.364.527.61 1.104.743 1.74.132.633.198 1.618.198 2.954v8.729h-3.862V26.46c0-1.56-.07-2.548-.217-2.968a1.917 1.917 0 0 0-.775-1c-.372-.251-.835-.375-1.394-.375-.64 0-1.214.16-1.713.478-.51.32-.876.798-1.108 1.437-.236.64-.354 1.585-.35 2.836l-.004 7.454H9.789V13.169h3.862m15.206 0v8.164c1.244-1.482 2.733-2.228 4.46-2.228.887 0 1.69.17 2.406.507.714.335 1.25.765 1.61 1.287a4.69 4.69 0 0 1 .743 1.74c.133.633.199 1.618.199 2.954v8.729h-3.858V26.46c0-1.56-.073-2.548-.22-2.968a1.91 1.91 0 0 0-.777-1c-.368-.251-.835-.375-1.394-.375-.639 0-1.213.16-1.713.478-.503.32-.871.798-1.106 1.437-.232.64-.35 1.585-.35 2.836v7.454H25V13.169h3.857"
      fill="#FEFEFE" />
  </symbol>
</svg>
