<svg width="24" height="24" viewBox="0 0 24 24" fill="none" xmlns="http://www.w3.org/2000/svg">
<path d="M16.496 6.49999C16.8938 6.49999 17.2754 6.65803 17.5567 6.93933C17.838 7.22064 17.996 7.60217 17.996 7.99999V16.414L18.97 15.439C19.1093 15.2997 19.2747 15.1891 19.4568 15.1137C19.6388 15.0383 19.834 14.9995 20.031 14.9995C20.228 14.9995 20.4232 15.0383 20.6052 15.1137C20.7873 15.1891 20.9527 15.2997 21.092 15.439C21.2313 15.5783 21.3419 15.7437 21.4173 15.9258C21.4927 16.1078 21.5315 16.3029 21.5315 16.5C21.5315 16.697 21.4927 16.8922 21.4173 17.0742C21.3419 17.2562 21.2313 17.4217 21.092 17.561L17.556 21.096C17.2747 21.3772 16.8932 21.5352 16.4955 21.5352C16.0978 21.5352 15.7163 21.3772 15.435 21.096L11.899 17.561C11.7597 17.4217 11.6491 17.2562 11.5737 17.0742C11.4983 16.8922 11.4595 16.697 11.4595 16.5C11.4595 16.3029 11.4983 16.1078 11.5737 15.9258C11.6491 15.7437 11.7597 15.5783 11.899 15.439C12.0383 15.2997 12.2037 15.1891 12.3858 15.1137C12.5678 15.0383 12.763 14.9995 12.96 14.9995C13.157 14.9995 13.3522 15.0383 13.5342 15.1137C13.7163 15.1891 13.8817 15.2997 14.021 15.439L14.996 16.414V7.99999C14.996 7.60217 15.154 7.22064 15.4353 6.93933C15.7166 6.65803 16.0982 6.49999 16.496 6.49999ZM8.556 2.90399L12.092 6.43899C12.2313 6.57833 12.3419 6.74374 12.4173 6.92578C12.4927 7.10783 12.5315 7.30295 12.5315 7.49999C12.5315 7.69704 12.4927 7.89216 12.4173 8.0742C12.3419 8.25625 12.2313 8.42166 12.092 8.56099C11.9527 8.70033 11.7873 8.81085 11.6052 8.88626C11.4232 8.96166 11.228 9.00047 11.031 9.00047C10.834 9.00047 10.6388 8.96166 10.4568 8.88626C10.2747 8.81085 10.1093 8.70033 9.97 8.56099L8.996 7.58599V16C8.996 16.3978 8.83796 16.7793 8.55666 17.0607C8.27535 17.342 7.89382 17.5 7.496 17.5C7.09817 17.5 6.71664 17.342 6.43534 17.0607C6.15403 16.7793 5.996 16.3978 5.996 16V7.58599L5.021 8.56099C4.88167 8.70033 4.71625 8.81085 4.53421 8.88626C4.35216 8.96166 4.15705 9.00047 3.96 9.00047C3.76295 9.00047 3.56784 8.96166 3.38579 8.88626C3.20374 8.81085 3.03833 8.70033 2.899 8.56099C2.75967 8.42166 2.64914 8.25625 2.57374 8.0742C2.49833 7.89216 2.45952 7.69704 2.45952 7.49999C2.45952 7.30295 2.49833 7.10783 2.57374 6.92578C2.64914 6.74374 2.75967 6.57833 2.899 6.43899L6.435 2.90399C6.71629 2.62279 7.09775 2.46481 7.4955 2.46481C7.89325 2.46481 8.27471 2.62279 8.556 2.90399Z" fill="currentColor"/>
</svg>
