<svg width="16" height="16" viewBox="0 0 16 16" fill="none" xmlns="http://www.w3.org/2000/svg">
<path fill-rule="evenodd" clip-rule="evenodd" d="M9.25001 3.75001C9.25001 4.08153 9.11831 4.39947 8.88389 4.63389C8.64947 4.86831 8.33153 5.00001 8.00001 5.00001C7.66849 5.00001 7.35054 4.86831 7.11612 4.63389C6.8817 4.39947 6.75001 4.08153 6.75001 3.75001C6.75001 3.41849 6.8817 3.10054 7.11612 2.86612C7.35054 2.6317 7.66849 2.50001 8.00001 2.50001C8.33153 2.50001 8.64947 2.6317 8.88389 2.86612C9.11831 3.10054 9.25001 3.41849 9.25001 3.75001ZM10.45 5.00001C10.6637 4.58077 10.7663 4.1137 10.7479 3.64348C10.7295 3.17327 10.5908 2.71564 10.3449 2.31439C10.0991 1.91313 9.75441 1.58167 9.34384 1.35172C8.93328 1.12176 8.47058 1.00101 8.00001 1.00101C7.52943 1.00101 7.06673 1.12176 6.65617 1.35172C6.24561 1.58167 5.90092 1.91313 5.65509 2.31439C5.40926 2.71564 5.27051 3.17327 5.25211 3.64348C5.23371 4.1137 5.33628 4.58077 5.55001 5.00001H3.82001C3.58892 5.00015 3.365 5.08032 3.18634 5.22689C3.00768 5.37347 2.8853 5.5774 2.84001 5.80401L1.24001 13.804C1.21102 13.949 1.21456 14.0987 1.25037 14.2422C1.28619 14.3857 1.35338 14.5194 1.44712 14.6338C1.54085 14.7482 1.65879 14.8404 1.79244 14.9037C1.92609 14.967 2.07212 14.9999 2.22001 15H13.78C13.9279 14.9999 14.0739 14.967 14.2076 14.9037C14.3412 14.8404 14.4592 14.7482 14.5529 14.6338C14.6466 14.5194 14.7138 14.3857 14.7496 14.2422C14.7855 14.0987 14.789 13.949 14.76 13.804L13.16 5.80401C13.1147 5.5774 12.9923 5.37347 12.8137 5.22689C12.635 5.08032 12.4111 5.00015 12.18 5.00001H10.45ZM8.00001 6.50001H4.23001L2.83001 13.5H13.17L11.77 6.50001H8.00001Z" fill="currentColor"/>
</svg>
